<?xml version="1.0" encoding="UTF-8" standalone="no"?>
<!-- Created with Inkscape (http://www.inkscape.org/) -->

<svg
        version="1.1"
        id="svg2"
        width="793.70135"
        height="1122.52"
        viewBox="0 0 793.70135 1122.52"
        sodipodi:docname="University_of_Glasgow.ai"
        xmlns:inkscape="http://www.inkscape.org/namespaces/inkscape"
        xmlns:sodipodi="http://sodipodi.sourceforge.net/DTD/sodipodi-0.dtd"
        xmlns="http://www.w3.org/2000/svg"
        xmlns:svg="http://www.w3.org/2000/svg">
    <defs
            id="defs6">
        <clipPath
                clipPathUnits="userSpaceOnUse"
                id="clipPath16">
            <path
                    d="M 0,841.89 H 595.276 V 0 H 0 Z"
                    id="path14" />
        </clipPath>
    </defs>
    <sodipodi:namedview
            id="namedview4"
            pagecolor="#ffffff"
            bordercolor="#000000"
            borderopacity="0.25"
            inkscape:showpageshadow="2"
            inkscape:pageopacity="0.0"
            inkscape:pagecheckerboard="0"
            inkscape:deskcolor="#d1d1d1" />
    <g
            id="g8"
            inkscape:groupmode="layer"
            inkscape:label="University_of_Glasgow"
            transform="matrix(1.3333333,0,0,-1.3333333,0,1122.52)">
        <g
                id="g10">
            <g
                    id="g12"
                    clip-path="url(#clipPath16)">
                <path
                        d="m 238.541,666.162 v -2.004 c -7.129,-0.116 -9.672,-2.989 -9.672,-9.779 v -28.696 c 0,-13.171 -8.392,-27.314 -31.459,-27.314 -20.289,0 -30.698,11.581 -30.698,26.777 v 31.031 c 0,6.806 -1.916,7.865 -9.141,7.981 v 2.004 h 27.307 v -2.004 h -0.958 c -5.837,0 -8.392,-1.611 -8.392,-7.768 v -29.541 c 0,-14.337 8.392,-22.946 24.228,-22.946 12.009,0 24.226,4.993 24.226,23.043 v 24.768 c 0,10.201 -1.596,12.003 -10.413,12.444 v 2.004 z"
                        style="fill:#12375e;fill-opacity:1;fill-rule:nonzero;stroke:none"
                        id="path18" />
                <path
                        d="m 250.544,609.315 c 0,-5.841 1.378,-7.234 7.121,-7.234 v -2.013 h -21.36 v 2.013 c 4.674,0 7.115,2.559 7.115,6.704 v 22.31 c 0,3.933 -0.424,4.674 -3.183,5.204 l -3.616,0.75 v 1.699 l 12.22,4.468 h 1.703 v -8.285 c 7.121,4.454 13.065,8.387 18.279,8.387 7.226,0 11.366,-5.306 11.366,-15.932 0,-14.134 -0.741,-16.891 -0.847,-21.045 -0.111,-2.867 1.59,-4.26 5.95,-4.26 h 2.341 v -2.013 h -22.844 v 2.013 c 3.076,0.114 4.878,0.86 6.046,2.026 2.016,2.026 2.234,9.785 2.234,23.907 0,8.502 -4.14,11.168 -8.4,11.168 -3.398,0 -8.602,-2.979 -14.125,-6.806 z"
                        style="fill:#12375e;fill-opacity:1;fill-rule:nonzero;stroke:none"
                        id="path20" />
                <path
                        d="m 302.258,667.761 c 2.553,0 4.667,-1.801 4.667,-4.044 0,-2.224 -2.114,-4.034 -4.667,-4.034 -2.555,0 -4.57,1.81 -4.57,4.034 0,2.243 2.015,4.044 4.57,4.044 m 4.357,-59.613 c 0,-3.723 2.018,-6.07 7.649,-6.07 v -2.01 h -23.589 v 2.01 c 6.476,0 8.816,2.128 8.816,7.769 v 21.352 c 0,4.152 -0.526,4.674 -3.289,5.216 l -4.996,0.958 v 1.696 l 13.81,4.784 h 1.599 z"
                        style="fill:#12375e;fill-opacity:1;fill-rule:nonzero;stroke:none"
                        id="path22" />
                <path
                        d="m 335.908,599.115 -15.41,35.274 c -1.597,3.72 -2.975,4.996 -4.676,5.319 l -3.291,0.529 v 1.913 h 21.678 v -1.913 c -6.489,-0.21 -8.506,-1.055 -5.954,-6.047 l 11.269,-26.471 10.831,24.551 c 1.921,4.362 0.958,7.438 -6.792,7.967 v 1.913 h 18.487 v -1.913 c -4.035,-0.746 -6.384,-3.076 -8.401,-7.755 l -14.656,-33.367 z"
                        style="fill:#12375e;fill-opacity:1;fill-rule:nonzero;stroke:none"
                        id="path24" />
                <path
                        d="m 390.6,629.826 c -1.171,6.903 -5.417,11.477 -10.525,11.477 -3.508,0 -8.814,-1.597 -11.26,-11.477 z m -22.113,-2.763 c -0.201,-1.604 -0.414,-3.081 -0.414,-4.463 0,-11.053 7.756,-18.496 16.143,-18.496 5.323,0 9.464,2.124 13.508,6.917 l 1.165,-1.272 c -4.463,-5.645 -11.159,-10.955 -18.915,-10.955 -10.413,0 -18.487,9.455 -18.487,21.784 0,11.274 7.54,22.742 20.508,22.742 14.334,0 14.021,-10.307 17.529,-13.813 v -2.444 z"
                        style="fill:#12375e;fill-opacity:1;fill-rule:nonzero;stroke:none"
                        id="path26" />
                <path
                        d="m 418.864,607.829 c 0,-4.352 1.597,-5.751 6.907,-5.751 h 4.04 v -2.01 h -25.192 v 2.01 c 5.428,0.122 7.125,2.347 7.125,7.985 v 24.538 l -7.125,2.557 v 1.805 l 12.108,4.251 h 2.137 v -11.26 h 0.207 c 5.312,8.716 6.585,10.725 10.096,10.725 1.28,0 1.59,-0.107 3.606,-0.953 1.077,-0.421 2.989,-0.857 5.53,-1.589 l -2.541,-6.383 c -1.6,0.208 -3.62,0.749 -5.638,1.707 -1.161,0.531 -2.442,1.06 -3.725,1.06 -1.9,0 -3.072,-1.292 -4.14,-2.767 -1.378,-1.906 -2.539,-3.73 -3.395,-5.311 z"
                        style="fill:#12375e;fill-opacity:1;fill-rule:nonzero;stroke:none"
                        id="path28" />
                <path
                        d="m 444.287,610.809 c 1.263,-6.384 5.306,-9.994 10.09,-9.994 4.251,0 7.545,3.188 7.545,7.014 0,2.234 -0.531,3.61 -3.404,6.485 -7.547,7.542 -15.939,8.286 -15.939,17.109 0,7.009 5.534,11.892 13.601,11.892 2.869,0 5.843,-0.636 8.505,-1.696 l 0.212,-9.665 h -1.809 c -0.75,5.419 -4.247,8.814 -8.499,8.814 -3.5,0 -6.476,-2.449 -6.476,-5.95 0,-9.359 19.759,-10.946 19.759,-23.903 0,-6.912 -5.742,-12.121 -13.176,-12.121 -2.022,0 -3.506,0.321 -4.676,0.741 -1.168,0.323 -2.028,0.639 -2.865,0.639 -0.638,0 -1.276,-0.422 -1.808,-1.272 h -1.598 l -1.17,11.907 z"
                        style="fill:#12375e;fill-opacity:1;fill-rule:nonzero;stroke:none"
                        id="path30" />
                <path
                        d="m 484.582,667.761 c 2.553,0 4.671,-1.801 4.671,-4.044 0,-2.224 -2.118,-4.034 -4.671,-4.034 -2.555,0 -4.564,1.81 -4.564,4.034 0,2.243 2.009,4.044 4.564,4.044 m 4.358,-59.613 c 0,-3.723 2.017,-6.07 7.653,-6.07 v -2.01 h -23.594 v 2.01 c 6.489,0 8.825,2.128 8.825,7.769 v 21.352 c 0,4.152 -0.535,4.674 -3.293,5.216 l -5.006,0.958 v 1.696 l 13.82,4.784 h 1.595 z"
                        style="fill:#12375e;fill-opacity:1;fill-rule:nonzero;stroke:none"
                        id="path32" />
                <path
                        d="m 524.41,642.15 -1.703,-4.676 H 511.273 V 612.72 c 0,-6.691 4.787,-8.934 7.011,-8.934 2.343,0 4.461,1.818 6.479,5.329 l 1.706,-1.6 c -2.549,-5.534 -6.698,-8.721 -11.588,-8.721 -6.265,0 -10.729,5.209 -10.729,12.324 v 26.356 h -4.889 v 1.706 c 4.149,2.012 7.762,6.903 10.201,13.494 h 1.809 V 642.15 Z"
                        style="fill:#12375e;fill-opacity:1;fill-rule:nonzero;stroke:none"
                        id="path34" />
                <path
                        d="m 564.078,630.359 c 3.187,8.073 1.161,9.668 -5.099,9.875 v 1.916 h 17.635 v -1.916 c -4.352,-0.526 -6.79,-3.51 -8.811,-8.502 L 549.728,586.68 c -3.174,-7.861 -5.624,-11.367 -9.345,-11.367 -2.553,0 -4.354,1.595 -4.354,3.72 0,4.358 6.159,3.29 8.818,5.953 1.172,1.17 2.762,3.932 3.613,6.051 l 3.183,7.981 -16.464,34.944 c -2.027,4.359 -3.929,6.178 -8.397,6.272 v 1.916 h 21.364 v -1.916 c -6.483,-0.094 -7.23,-2.01 -5.098,-6.48 l 12.004,-25.925 z"
                        style="fill:#12375e;fill-opacity:1;fill-rule:nonzero;stroke:none"
                        id="path36" />
                <path
                        d="m 180.629,560.215 c -6.7,0 -12.643,-12.855 -12.643,-23.483 0,-8.913 3.82,-13.275 7.438,-13.275 8.498,0 13.494,13.808 13.494,23.583 0,7.449 -3.618,13.175 -8.289,13.175 m 5.421,3.937 c 3.076,0 9.67,-4.247 9.67,-15.631 0,-20.185 -20.088,-29.001 -25.08,-29.001 -4.99,0 -9.455,7.96 -9.455,16.792 0,17.206 18.486,27.84 24.865,27.84"
                        style="fill:#12375e;fill-opacity:1;fill-rule:nonzero;stroke:none"
                        id="path38" />
                <path
                        d="m 199.508,559.366 0.319,2.017 c 2.559,0.323 5.103,0.75 7.763,1.387 1.591,8.712 4.778,17.849 10.727,23.796 3.721,3.721 8.396,5.743 12.537,5.743 4.149,0 7.547,-2.336 7.547,-5.099 0,-1.698 -1.279,-3.085 -2.98,-3.085 -3.498,0 -6.374,4.357 -9.451,4.357 -4.149,0 -7.542,-4.675 -9.03,-11.689 l -2.874,-13.921 h 9.138 l -1.06,-3.506 h -8.717 l -5.416,-31.032 c -4.145,-23.797 -16.26,-32.29 -26.248,-32.29 -4.454,0 -8.18,2.225 -8.18,4.886 0,1.696 1.704,3.187 3.511,3.187 3.927,0 6.052,-4.678 10.09,-4.678 2.449,0 4.567,1.17 6.485,3.081 5.313,5.311 7.328,23.474 7.755,26.026 l 5.416,30.82 z"
                        style="fill:#12375e;fill-opacity:1;fill-rule:nonzero;stroke:none"
                        id="path40" />
                <path
                        d="m 300.969,525.795 c -10.516,-5.426 -24.005,-6.698 -28.473,-6.698 -23.271,0 -34.109,17.958 -34.109,33.474 0,15.932 11.161,35.913 37.086,35.913 11.367,0 18.913,-3.614 21.138,-3.614 0.962,0 1.819,0.203 2.451,0.741 h 1.486 v -17.215 h -2.118 c -2.883,13.283 -11.909,17.427 -21.789,17.427 -18.699,0 -28.267,-15.515 -28.267,-32.622 0,-21.78 15.303,-31.445 27.522,-31.445 4.89,0 10.306,1.059 16.261,4.039 v 13.388 c 0,6.047 -2.124,8.078 -8.501,8.078 h -3.934 v 1.902 h 28.685 v -1.902 c -5.311,-0.325 -7.438,-2.133 -7.438,-6.7 z"
                        style="fill:#12375e;fill-opacity:1;fill-rule:nonzero;stroke:none"
                        id="path42" />
                <path
                        d="m 324.39,529.188 c 0,-4.353 2.022,-6.37 6.163,-6.37 h 1.813 v -2.022 h -23.907 v 2.022 c 6.795,0 8.812,2.017 8.812,7.124 v 51.308 c 0,2.988 -0.315,3.932 -3.29,4.266 l -4.774,0.531 v 1.796 l 13.591,4.362 h 1.592 z"
                        style="fill:#12375e;fill-opacity:1;fill-rule:nonzero;stroke:none"
                        id="path44" />
                <path
                        d="m 358.639,540.561 c -2.022,-1.17 -3.721,-1.92 -6.268,-2.984 -6.486,-2.645 -8.93,-3.716 -8.93,-8.082 0,-3.815 3.077,-6.255 6.273,-6.255 1.699,0 2.974,0.529 8.925,4.674 z m -21.035,9.664 c -0.214,0.648 -0.325,0.957 -0.325,1.49 0,3.727 8.819,12.333 15.724,12.333 3.199,0 8.18,-1.495 11.149,-5.644 1.606,-2.23 1.606,-3.608 1.606,-9.133 v -14.233 c 0,-8.504 0,-10.42 2.767,-10.42 1.162,0 2.544,0.118 5.201,2.338 l 0.526,-1.597 c -5.727,-4.671 -8.71,-5.841 -10.515,-5.841 -4.357,0 -4.784,4.786 -4.885,6.476 -7.332,-6.047 -9.456,-6.476 -12.334,-6.476 -6.158,0 -9.871,3.51 -9.871,8.71 0,6.476 5.73,8.714 12.532,10.413 2.234,0.542 5.739,1.809 9.46,4.044 v 8.396 c 0,2.975 0,4.682 -1.815,6.801 -1.368,1.705 -3.602,3.076 -5.944,3.076 -3.506,0 -6.592,-2.975 -6.592,-5.195 0,-0.648 0.107,-1.071 0.533,-2.026 z"
                        style="fill:#12375e;fill-opacity:1;fill-rule:nonzero;stroke:none"
                        id="path46" />
                <path
                        d="m 379.488,531.528 c 1.284,-6.375 5.31,-9.998 10.108,-9.998 4.247,0 7.536,3.206 7.536,7.014 0,2.238 -0.527,3.623 -3.401,6.489 -7.534,7.538 -15.93,8.291 -15.93,17.109 0,7.014 5.518,11.902 13.6,11.902 2.863,0 5.837,-0.642 8.493,-1.697 l 0.212,-9.674 h -1.804 c -0.748,5.424 -4.251,8.823 -8.502,8.823 -3.506,0 -6.481,-2.449 -6.481,-5.954 0,-9.35 19.767,-10.94 19.767,-23.917 0,-6.889 -5.742,-12.107 -13.176,-12.107 -2.016,0 -3.511,0.32 -4.676,0.736 -1.166,0.334 -2.022,0.644 -2.868,0.644 -0.643,0 -1.267,-0.418 -1.805,-1.272 h -1.604 l -1.156,11.902 z"
                        style="fill:#12375e;fill-opacity:1;fill-rule:nonzero;stroke:none"
                        id="path48" />
                <path
                        d="m 426.981,562.022 c -4.042,0 -10.306,-2.229 -10.306,-12.116 0,-6.264 3.187,-14.669 11.269,-14.669 6.159,0 10.197,5.103 10.197,12.439 0,9.137 -4.678,14.346 -11.16,14.346 m 2.976,-63.007 c 9.03,0 17.528,5.954 17.528,12.642 0,3.928 -3.284,5.954 -7.12,6.264 -2.758,0.329 -16.145,0.44 -19.226,0.856 -2.973,-3.502 -6.906,-4.992 -6.906,-9.126 0,-5.005 7.009,-10.636 15.724,-10.636 m 24.125,55.138 c -1.596,0.106 -6.597,0.541 -10.626,1.291 0.635,-1.185 1.801,-3.406 1.801,-6.81 0,-7.861 -6.793,-15.414 -18.588,-15.414 -2.019,0 -2.976,0.217 -4.896,0.856 -1.698,-1.809 -6.471,-2.975 -6.471,-5.417 0,-2.67 4.56,-3.72 15.185,-3.826 12.011,-0.097 16.157,-0.64 19.344,-3.831 2.545,-2.553 3.183,-5.2 3.183,-7.43 0,-6.905 -9.356,-17.528 -29.011,-17.528 -11.041,0 -16.358,4.881 -16.358,10.095 0,6.153 6.486,7.111 11.366,13.051 -5.731,0.54 -10.093,4.15 -10.093,7.554 0,4.886 7.129,5.098 10.838,7.862 -6.476,2.551 -10.2,7.116 -10.2,13.177 0,9.146 8.178,16.265 18.698,16.265 4.895,0 9.04,-1.495 11.909,-4.255 4.773,0 9.242,0.535 13.919,1.064 z"
                        style="fill:#12375e;fill-opacity:1;fill-rule:nonzero;stroke:none"
                        id="path50" />
                <path
                        d="m 480.675,522.072 c 6.268,0 13.379,6.375 13.379,17.003 0,12.105 -7.429,22.416 -16.354,22.416 -7.013,0 -13.503,-7.23 -13.503,-16.367 0,-12.855 7.345,-23.052 16.478,-23.052 m -1.488,41.974 c 12.96,0 22.843,-9.666 22.843,-22.321 0,-12.537 -9.883,-22.205 -22.526,-22.205 -13.175,0 -23.27,9.562 -23.27,21.988 0,14.664 11.905,22.538 22.953,22.538"
                        style="fill:#12375e;fill-opacity:1;fill-rule:nonzero;stroke:none"
                        id="path52" />
                <path
                        d="m 551.333,519.836 -12.646,29.968 -12.756,-29.968 h -2.959 l -15.847,35.71 c -1.479,3.294 -2.979,4.884 -7.857,5.412 v 1.916 h 20.613 v -1.916 c -6.276,-0.315 -6.699,-2.118 -4.461,-7.11 l 11.469,-25.62 10.417,24.657 c -2.34,5.412 -4.15,7.332 -7.868,7.758 l -2.549,0.315 v 1.916 h 21.991 v -1.916 c -5.204,-0.101 -6.79,-1.694 -4.566,-7.004 l 10.415,-25.295 10.201,24.861 c 2.335,5.638 0.538,7.438 -6.167,7.438 v 1.916 h 17.851 v -1.916 c -4.034,-0.411 -6.587,-2.439 -8.71,-7.644 l -13.702,-33.478 z"
                        style="fill:#12375e;fill-opacity:1;fill-rule:nonzero;stroke:none"
                        id="path54" />
                <path
                        d="m 20.913,666.15 111.147,0.009 c 0,0 0.135,-52.662 0,-90.902 0.017,-28.163 -34.78,-59.234 -55.602,-60.306 -23.087,1.84 -55.545,34.139 -55.545,59.958 z"
                        style="fill:#12375e;fill-opacity:1;fill-rule:nonzero;stroke:none"
                        id="path56" />
                <path
                        d="m 75.663,529.927 h 3.535 v 97.911 h -3.535 z"
                        style="fill:#9adaf8;fill-opacity:1;fill-rule:nonzero;stroke:none"
                        id="path58" />
                <path
                        d="m 100.768,628.441 c 3.155,0.014 8.258,-0.018 11.565,-0.018 1.027,0 2.71,0.309 1.766,-1.958 -0.831,-2.007 -2.039,-4.805 -2.557,-6.009 -1.744,0 -8.823,-0.009 -8.841,0.027 -0.56,1.31 -1.364,3.179 -2.396,5.548 -0.547,1.267 -0.813,2.41 0.463,2.41 m -1.602,-34.316 h 17.454 c 5.151,0 5.622,-0.707 5.982,-1.814 -0.217,1.717 -1.327,10.502 -2.099,16.862 -0.203,1.66 -0.788,6.228 -3.09,8.952 -0.727,0.87 -1.075,1.311 -2.642,1.979 0.119,0.343 1.544,3.887 2.599,6.745 0.547,1.464 -0.04,2.916 -1.156,3.596 -0.972,0.587 -2.221,0.61 -3.109,0.61 -5.981,0 -10.603,-0.01 -12.443,-0.01 -3.197,0 -4.679,-2.034 -3.703,-4.485 0.741,-1.862 1.977,-5.036 2.537,-6.488 -3.933,-1.308 -5.234,-6.675 -5.803,-11.323 -0.947,-7.838 -2.234,-18.288 -2.327,-18.918 -0.137,-0.994 -0.304,-1.816 1.333,-1.891 3.099,-0.199 6.718,-0.223 12.814,-0.065 0.592,-0.333 1.351,-0.538 2.347,-0.504 0.994,0.013 1.71,0.277 2.23,0.644 2.487,0.086 5.319,0.203 8.552,0.332 -2.84,0.07 -5.505,0.153 -7.965,0.216 0.883,1.107 0.796,2.614 0.712,2.906 -0.371,-4.085 -5.677,-3.692 -4.362,0.639 -0.569,0 -2.044,0 -2.984,-0.768 -0.255,-0.628 -0.167,-1.69 0.434,-2.562 -3.436,0.147 -6.278,0.271 -8.331,0.389 -1.055,0.054 -1.563,0.813 -1.028,1.516 2.221,2.9 2.356,3.442 4.048,3.442"
                        style="fill:#ffcf3a;fill-opacity:1;fill-rule:nonzero;stroke:none"
                        id="path60" />
                <path
                        d="m 76.607,530.349 c 0,-1.152 -0.768,-2.087 -1.721,-2.087 -0.945,0 -1.721,0.935 -1.721,2.087 v 9.715 c 0,1.139 0.776,2.081 1.721,2.081 0.953,0 1.721,-0.942 1.721,-2.081 v -9.715"
                        style="fill:#ffffff;fill-opacity:1;fill-rule:nonzero;stroke:none"
                        id="path62" />
                <path
                        d="m 52.647,645.721 c 0.552,0.226 1.342,0.172 2.063,0.172 -0.804,0.667 -1.529,0.928 -1.97,1.045 -1.028,3.886 -6.652,2.831 -7.207,-0.616 -0.2,-1.244 -4.617,-1.789 -9.682,-8.563 -2.338,-3.109 -5.557,-5.805 -6.533,-6.429 -0.98,-0.612 1.412,-0.432 2.512,0.738 1.042,-1.045 3.077,2.092 6.144,2.625 0.809,0.129 10.996,1.979 8.313,7.814 3.585,-4.617 -2.397,-7.94 -6.167,-8.304 0.332,-0.176 2.295,-0.334 2.516,-0.417 0.565,-0.199 -0.167,-0.884 0.292,-1.143 1.097,-0.606 3.275,-2.659 3.275,-2.659 0,0 1.24,0.42 0.676,0.98 -1.674,1.104 -2.132,1.444 -2.562,2.133 -0.029,0.04 -0.569,1.063 0.536,1.36 1.597,0.13 6.819,1.985 5.931,8.531 -0.145,1.034 0.583,2.155 1.863,2.733"
                        style="fill:#e2a134;fill-opacity:1;fill-rule:nonzero;stroke:none"
                        id="path64" />
                <path
                        d="m 51.887,646.81 c 0,-0.348 -0.256,-0.617 -0.57,-0.617 -0.3,0 -0.56,0.269 -0.56,0.617 0,0.332 0.26,0.614 0.56,0.614 0.314,0 0.57,-0.282 0.57,-0.614"
                        style="fill:#12375e;fill-opacity:1;fill-rule:nonzero;stroke:none"
                        id="path66" />
                <path
                        d="m 79.146,528.752 v 13.754"
                        style="fill:none;stroke:#ffffff;stroke-width:0.407;stroke-linecap:butt;stroke-linejoin:miter;stroke-miterlimit:4;stroke-dasharray:none;stroke-opacity:1"
                        id="path68" />
                <path
                        d="m 81.762,526.606 c 0.56,0.587 0.897,1.377 0.897,2.256 0,1.801 -1.462,3.271 -3.271,3.271 h -5.564 c -1.809,0 -3.28,-1.47 -3.28,-3.271 0,-0.851 0.324,-1.603 0.845,-2.182 -0.675,-0.612 -1.872,-1.773 -2.211,-2.166 3.739,-1.651 10.84,-1.518 14.836,0.023 -0.375,0.325 -1.651,1.495 -2.252,2.069"
                        style="fill:#ffcf3a;fill-opacity:1;fill-rule:nonzero;stroke:none"
                        id="path70" />
                <path
                        d="m 76.521,639.511 c 0,-0.083 -0.009,-0.06 -0.009,0.023 -2.414,2.166 -10.178,3.086 -15.17,1.809 0.33,-0.6 0.727,-2.543 0.944,-3.315 7.366,2.451 14.226,-1.13 14.226,-1.13 0,0.014 0,0.045 0.005,0.07 0,-0.025 0,-0.061 0.004,-0.079 0,0 6.861,3.576 14.231,1.123 0.204,0.772 0.614,2.706 0.942,3.304 -4.995,1.286 -12.754,0.364 -15.173,-1.805"
                        style="fill:#9adaf8;fill-opacity:1;fill-rule:nonzero;stroke:none"
                        id="path72" />
                <path
                        d="m 79.302,551.979 v 75.863"
                        style="fill:none;stroke:#ffffff;stroke-width:0.237;stroke-linecap:butt;stroke-linejoin:miter;stroke-miterlimit:4;stroke-dasharray:none;stroke-opacity:1"
                        id="path74" />
                <path
                        d="m 74.98,557.448 v 70.39"
                        style="fill:none;stroke:#ffffff;stroke-width:0.761;stroke-linecap:butt;stroke-linejoin:miter;stroke-miterlimit:4;stroke-dasharray:none;stroke-opacity:1"
                        id="path76" />
                <path
                        d="m 80.104,600.757 c 0.226,0.825 0.332,2.864 0,3.503 -1.651,0 -4.215,-0.02 -5.713,0.023 3.422,-1.249 5.713,-3.526 5.713,-3.526"
                        style="fill:#12375e;fill-opacity:1;fill-rule:nonzero;stroke:none"
                        id="path78" />
                <path
                        d="m 67.766,538.085 c 1.965,-0.295 12.527,-0.794 12.527,-0.794 l 1.722,-4.48 c 0,0 -9.221,0.242 -14.249,5.274"
                        style="fill:#12375e;fill-opacity:1;fill-rule:nonzero;stroke:none"
                        id="path80" />
                <path
                        d="m 110.976,570.195 c -3.298,2.132 -7.306,0.49 -11.645,4.131 0.014,-11.296 8.245,-13.564 3.614,-16.575 -4.127,-2.702 -8.125,-3.368 -12.275,-3.027 0.353,0.565 0.976,1.592 1.469,2.101 -5.085,0.657 -9.516,0.287 -11.38,0.07 -6.334,1.859 -13.357,4.21 -21.818,4.339 1.536,-1.254 3.045,-3.425 3.045,-7.165 -1.283,5.051 -6.537,7.694 -9.119,8.701 -0.773,0.292 -1.493,0.425 -2.243,0.551 -0.38,-0.519 -1.2,-1.389 -2.568,-1.897 -0.782,0.411 -1.422,-0.323 -1.313,-0.57 0.045,-0.12 0.031,-0.234 -0.066,-0.356 -0.754,-0.985 -3.234,-0.518 -5.084,0.126 -2.123,0.73 -2.035,-0.736 -1.629,-1.468 0.671,-1.184 1.315,-1.948 1.629,-2.598 2.825,-5.773 4.917,-9.564 11.181,-13.144 5.955,-4.389 13.44,-6.652 21.05,-6.916 2.774,-0.994 9.155,-2.752 17.147,-1.476 -1.55,1.051 -3.108,2.083 -3.621,3.122 10.163,2.935 18.954,9.609 22.548,19.69 0.04,0.111 0.079,0.222 0.115,0.332 0.644,2.208 -1.493,5.142 -4.529,2.251 2.627,6.317 6.98,3.584 6.06,-0.154 3.475,4.671 8.119,9.701 14.324,11.601 -5.668,2.62 -11.233,0.352 -14.892,-1.669"
                        style="fill:#9adaf8;fill-opacity:1;fill-rule:nonzero;stroke:none"
                        id="path82" />
                <path
                        d="m 80.208,580.05 c 0.235,0.834 0.332,2.873 0,3.497 -1.652,0 -4.211,-0.023 -5.699,0.029 3.408,-1.249 5.699,-3.526 5.699,-3.526"
                        style="fill:#12375e;fill-opacity:1;fill-rule:nonzero;stroke:none"
                        id="path84" />
                <path
                        d="m 82.609,586.705 c 0,-1.819 -1.484,-3.28 -3.318,-3.28 h -5.643 c -1.832,0 -3.316,1.461 -3.316,3.28 0,1.813 1.484,3.271 3.316,3.271 h 5.643 c 1.834,0 3.318,-1.458 3.318,-3.271"
                        style="fill:#ffcf3a;fill-opacity:1;fill-rule:nonzero;stroke:none"
                        id="path86" />
                <path
                        d="m 79.196,584.539 c -3.307,-0.033 -6.153,0 -6.153,0 0,0 4.664,0.281 7.614,3.433 0.777,-0.515 0.926,-3.425 -1.461,-3.433"
                        style="fill:#e2a134;fill-opacity:1;fill-rule:nonzero;stroke:none"
                        id="path88" />
                <path
                        d="m 80.264,559.057 c 0.231,0.817 0.328,2.873 0,3.496 -1.651,0 -4.205,-0.023 -5.703,0.03 3.418,-1.254 5.703,-3.526 5.703,-3.526"
                        style="fill:#12375e;fill-opacity:1;fill-rule:nonzero;stroke:none"
                        id="path90" />
                <path
                        d="m 82.654,565.806 c 0,-1.818 -1.48,-3.28 -3.312,-3.28 h -5.644 c -1.837,0 -3.316,1.462 -3.316,3.28 0,1.814 1.479,3.257 3.316,3.257 h 5.644 c 1.832,0 3.312,-1.443 3.312,-3.257"
                        style="fill:#ffcf3a;fill-opacity:1;fill-rule:nonzero;stroke:none"
                        id="path92" />
                <path
                        d="m 79.241,563.64 c -3.316,-0.028 -6.153,0.005 -6.153,0.005 0,0 4.653,0.259 7.614,3.437 0.777,-0.528 0.931,-3.429 -1.461,-3.442"
                        style="fill:#e2a134;fill-opacity:1;fill-rule:nonzero;stroke:none"
                        id="path94" />
                <path
                        d="m 71.518,612.73 h 9.975 v 9.792 h -9.975 z"
                        style="fill:#ffcf3a;fill-opacity:1;fill-rule:nonzero;stroke:none"
                        id="path96" />
                <path
                        d="m 81.495,612.744 c -1.694,-0.411 -1.581,-1.831 -1.641,-2.349 0,0 -4.026,-0.027 -6.666,0 0.017,0.152 0.083,2.089 -1.667,2.349 0,0 9.335,-0.009 9.974,0"
                        style="fill:#e2a134;fill-opacity:1;fill-rule:nonzero;stroke:none"
                        id="path98" />
                <path
                        d="m 77.348,612.609 h 2.702 v 9.914 h -2.702 z"
                        style="fill:#e2a134;fill-opacity:1;fill-rule:nonzero;stroke:none"
                        id="path100" />
                <path
                        d="m 44.911,561.636 c -0.499,0.19 -0.772,0.61 -0.906,0.935 -0.325,0.712 -0.311,1.669 0.037,2.571 0.348,0.89 0.975,1.615 1.708,1.938 0.317,0.135 0.799,0.255 1.298,0.07 0.736,-0.296 1.152,-1.114 1.152,-2.094 0,-0.454 -0.088,-0.94 -0.273,-1.411 -0.337,-0.898 -0.981,-1.621 -1.701,-1.944 -0.321,-0.135 -0.802,-0.268 -1.315,-0.065 m 0.305,6.63 c -1.05,-0.463 -1.924,-1.426 -2.392,-2.652 -0.481,-1.231 -0.481,-2.53 -0.023,-3.585 0.34,-0.763 0.922,-1.342 1.643,-1.624 0.711,-0.269 1.535,-0.231 2.304,0.111 1.054,0.454 1.924,1.425 2.405,2.643 0.852,2.202 0.111,4.529 -1.628,5.208 -0.716,0.283 -1.536,0.244 -2.309,-0.101"
                        style="fill:#ffcf3a;fill-opacity:1;fill-rule:nonzero;stroke:none"
                        id="path102" />
                <path
                        d="m 46.696,561.986 c -0.565,0.181 -1.947,0.583 -3.617,0.639 -1.186,0.037 -2.337,0.716 -2.263,1.068 0.065,0.249 0.37,0.38 0.865,0.448 1.143,0.163 3.619,0.034 6.286,-0.406 -0.217,-0.64 -0.582,-1.241 -1.271,-1.749"
                        style="fill:#9adaf8;fill-opacity:1;fill-rule:nonzero;stroke:none"
                        id="path104" />
                <path
                        d="m 50.906,641.5 c -0.041,-4.979 -3.853,-6.547 -4.949,-6.833 0.363,1.106 1.913,6.263 4.949,6.833"
                        style="fill:#ee422d;fill-opacity:1;fill-rule:nonzero;stroke:none"
                        id="path106" />
                <path
                        d="m 82.69,607.5 c 0,-1.819 -1.48,-3.294 -3.322,-3.294 h -5.634 c -1.837,0 -3.321,1.475 -3.321,3.294 0,1.8 1.484,3.266 3.321,3.266 h 5.634 c 1.842,0 3.322,-1.466 3.322,-3.266"
                        style="fill:#ffcf3a;fill-opacity:1;fill-rule:nonzero;stroke:none"
                        id="path108" />
                <path
                        d="m 79.282,605.329 c -3.312,-0.034 -6.162,0.004 -6.162,0.004 0,0 4.662,0.278 7.623,3.438 0.777,-0.533 0.926,-3.429 -1.461,-3.442"
                        style="fill:#e2a134;fill-opacity:1;fill-rule:nonzero;stroke:none"
                        id="path110" />
                <path
                        d="m 57.181,560.01 c 3.594,-2.406 4.807,-5.946 4.807,-5.946 0,0 1.193,2.962 -0.445,5.261 3.275,0.953 8.956,-0.535 14.082,-2.543 7.524,-2.948 13.148,-3.924 18.879,-2.948 5.728,0.976 8.744,2.164 10.585,5.019 0.98,1.531 3.876,1.209 3.058,-1.082 -0.815,-2.295 -4.371,-8.841 -11.08,-10.65 -6.713,-1.794 -17.788,-4.8 -34.157,-0.703 -4.383,1.096 -14.676,3.831 -18.88,9.234 -0.842,1.082 -1.064,3.099 -1.107,3.413 -0.045,0.398 0.208,0.597 1.134,0.436 2.882,-0.508 3.427,0.597 4.502,1.81 1.184,0.151 5.347,0.878 8.622,-1.301"
                        style="fill:#ffffff;fill-opacity:1;fill-rule:nonzero;stroke:none"
                        id="path112" />
                <path
                        d="m 106.945,558.234 c -5.005,-9.516 -14.682,-10.991 -24.808,-11.301 -4.109,-0.115 -8.218,0.398 -11.746,1.299 2.974,-0.3 6.056,-0.059 7.933,0.592 -0.732,3.822 -7.244,6.589 -11.787,6.833 -0.86,0.982 -1.111,2.259 -3.201,2.997 1.48,-1.35 1.356,-3.241 2.09,-4.217 3.72,-0.759 8.254,-1.708 10.443,-4.626 -0.773,-0.996 -7.5,-0.445 -11.164,0.393 -1.583,0.583 -3.229,1.536 -4.108,3.241 -1.749,-1.956 -4.529,-1.254 -7.389,0.172 -0.041,1.116 -0.725,2.087 -2.2,2.374 0.319,-0.481 0.402,-0.989 0.407,-1.403 -3.235,1.867 -6.312,4.136 -7.857,4.021 -2.191,-0.171 4.784,-12.412 10.678,-13.715 17.51,-10.095 46.764,-5.659 53.699,11.375 0.976,2.455 0.115,4.057 -0.99,1.965"
                        style="fill:#0699d6;fill-opacity:1;fill-rule:nonzero;stroke:none"
                        id="path114" />
                <path
                        d="m 51.649,554.756 c 0.098,-1.065 -0.741,-2.027 -1.877,-2.132 -1.129,-0.136 -2.139,0.657 -2.245,1.73 -0.107,1.072 0.732,2.035 1.861,2.146 1.136,0.105 2.146,-0.671 2.261,-1.744"
                        style="fill:#ffffff;fill-opacity:1;fill-rule:nonzero;stroke:none"
                        id="path116" />
                <path
                        d="m 50.66,554.552 c 0,-0.526 -0.486,-0.944 -1.082,-0.944 -0.583,0 -1.069,0.418 -1.069,0.944 0,0.524 0.486,0.958 1.069,0.958 0.596,0 1.082,-0.434 1.082,-0.958"
                        style="fill:#12375e;fill-opacity:1;fill-rule:nonzero;stroke:none"
                        id="path118" />
                <path
                        d="m 100.833,572.006 c -1.202,-4.145 3.933,-9.733 3.933,-9.733 0,0 -2.327,7.249 -3.933,9.733"
                        style="fill:#ffffff;fill-opacity:1;fill-rule:nonzero;stroke:none"
                        id="path120" />
                <path
                        d="m 104.434,571.114 c -1.762,-2.424 1.554,-7.949 1.554,-7.949 0,0 -0.181,4.418 -1.554,7.949"
                        style="fill:#ffffff;fill-opacity:1;fill-rule:nonzero;stroke:none"
                        id="path122" />
                <path
                        d="m 109.995,564.81 c 1.398,3.029 4.181,6.056 7.133,7.124 -6.148,-0.746 -7.535,-4.83 -7.133,-7.124"
                        style="fill:#ffffff;fill-opacity:1;fill-rule:nonzero;stroke:none"
                        id="path124" />
                <path
                        d="m 76.505,656.681 c -2.59,5.024 -6.295,1.157 -12.796,3.165 -1.143,-5.311 -2.29,-14.823 -2.613,-16.456 4.431,-1.332 8.337,2.812 13.638,-0.644 -0.569,6.858 1.642,12.571 1.642,12.571 0,0 0.064,0.838 0.129,1.364"
                        style="fill:#ffffff;fill-opacity:1;fill-rule:nonzero;stroke:none"
                        id="path126" />
                <path
                        d="m 76.523,656.702 c -0.512,0.887 -1.009,1.642 -1.867,2.132 -0.76,-8.159 -0.954,-9.932 -3.545,-14.721 1.611,-0.208 2.799,-0.8 3.626,-1.387 -0.574,6.869 1.782,12.258 1.782,12.258 0,0 -0.014,1.426 0.004,1.718"
                        style="fill:#9adaf8;fill-opacity:1;fill-rule:nonzero;stroke:none"
                        id="path128" />
                <path
                        d="m 89.32,659.868 c -6.494,-2.008 -10.21,1.859 -12.797,-3.169 -0.004,-1.712 -0.013,-14.373 0.01,-15.322 6.227,5.814 10.496,0.565 15.405,2.04 -0.323,1.633 -1.475,11.136 -2.618,16.451"
                        style="fill:#ffffff;fill-opacity:1;fill-rule:nonzero;stroke:none"
                        id="path130" />
                <path
                        d="m 74.716,627.838 h 3.608 v 4.202 h -3.608 z"
                        style="fill:#ffcf3a;fill-opacity:1;fill-rule:nonzero;stroke:none"
                        id="path132" />
                <path
                        d="m 76.544,636.06 1.795,-3.142 -3.641,-0.014 z"
                        style="fill:#ffcf3a;fill-opacity:1;fill-rule:nonzero;stroke:none"
                        id="path134" />
                <path
                        d="m 46.16,623.664 v 0.023 c -0.031,0.008 -0.027,-0.005 0,-0.023"
                        style="fill:#069248;fill-opacity:1;fill-rule:nonzero;stroke:none"
                        id="path136" />
                <path
                        d="m 60.689,603.097 c 0,0 4.954,2.446 5.446,4.958 -1.531,1.477 -5.409,1.64 -5.409,1.64 0,0 4.452,3.386 4.266,5.837 -2.225,1.041 -6.175,0.433 -6.175,0.433 1.831,2.542 2.353,4.558 2.283,6.33 -2.313,0.384 -5.88,-0.981 -5.88,-0.981 0,0 1.2,4.26 0.021,6.472 -2.139,0.569 -5.155,-3.196 -5.155,-3.196 0,0 -1.068,4.658 -3.571,7.138 -2.507,-2.48 -3.614,-7.138 -3.614,-7.138 0,0 -3.011,3.765 -5.157,3.196 -1.161,-2.212 0.027,-6.472 0.027,-6.472 0,0 -3.566,1.365 -5.889,0.981 -0.059,-1.772 0.468,-3.788 2.3,-6.33 0,0 -3.965,0.608 -6.176,-0.433 -0.185,-2.451 4.26,-5.837 4.26,-5.837 0,0 -3.876,-0.163 -5.408,-1.64 0.495,-2.512 5.451,-4.958 5.451,-4.958 0,0 -2.952,-0.605 -4.753,-2.645 1.148,-1.527 3.73,-2.984 5.751,-3.318 -1.748,-1.407 -2.719,-2.503 -3.164,-3.325 2.837,-2.29 8.78,-2.614 14.73,-0.764 0,-1.138 0.018,-10.316 -1.374,-14.522 h 5.991 c -1.385,4.206 -1.369,13.384 -1.369,14.522 5.948,-1.85 11.902,-1.526 14.728,0.764 -0.443,0.822 -1.41,1.918 -3.154,3.325 2.017,0.334 4.593,1.791 5.74,3.318 -1.803,2.04 -4.746,2.645 -4.746,2.645"
                        style="fill:#81c341;fill-opacity:1;fill-rule:nonzero;stroke:none"
                        id="path138" />
                <path
                        d="m 55.272,602.934 c 0.565,0.305 3.438,1.184 4.909,3.752 -1.471,1.425 -4.909,1.48 -4.909,1.48 0,0 3.063,2.012 4.096,5.026 -2.625,0.763 -5.349,0 -5.349,0 0,0 2.233,3.166 2.512,5.837 -2.512,-0.274 -5.187,-1.591 -5.187,-1.591 0.76,1.647 1.139,3.983 0.816,6.013 -1.254,-0.25 -2.397,-1.678 -3.081,-2.573 -0.64,2.031 -1.717,2.675 -2.458,3.082 -1.224,-1.794 -1.471,-2.96 -1.317,-5.422 0.416,0.407 1.069,1.06 2.137,1.67 0.648,-3.511 -0.601,-6.07 -0.601,-6.07 0,0 1.545,1.01 3.594,1.249 0.084,-1.938 -0.626,-3.946 -2.67,-6.318 0,0 1.8,1.087 3.876,1.254 -0.327,-2.736 -1.997,-4.558 -3.718,-6.122 1.147,0.547 3.113,0.495 4.477,0.057 -0.702,-2.073 -2.327,-3.115 -4.685,-4.414 1.466,0 2.964,-0.194 3.811,-0.763 -0.953,-1.78 -3.271,-2.623 -4.875,-3.086 3.714,-1.416 7.308,-2.008 10.834,-1.152 -0.251,1.055 -1.582,2.327 -3.142,3.221 1.425,0.328 3.544,0.773 5.403,2.354 -1.197,1.204 -2.672,2.017 -4.473,2.516"
                        style="fill:#06974b;fill-opacity:1;fill-rule:nonzero;stroke:none"
                        id="path140" />
                <path
                        d="m 35.37,522.461 c 0.842,-2.808 -1.408,-8.242 0.194,-11.38 -1.364,0.043 -10.024,-1.54 -11.306,-0.42 -1.262,1.118 -4.634,3.51 -1.262,5.346 3.377,1.824 11.906,5.103 12.374,6.454"
                        style="fill:#9adaf8;fill-opacity:1;fill-rule:nonzero;stroke:none"
                        id="path142" />
                <path
                        d="m 118.063,522.748 c 0.99,-8.997 -0.517,-10.007 -0.424,-12.591 0.844,-0.223 7.734,-1.653 10.167,-0.347 2.433,1.314 4.122,4.501 2.993,5.809 -1.118,1.319 -6.741,4.877 -8.984,5.252 -2.247,0.384 -3.142,1.211 -3.752,1.877"
                        style="fill:#9adaf8;fill-opacity:1;fill-rule:nonzero;stroke:none"
                        id="path144" />
                <path
                        d="m 128.815,518.406 c -3.738,2.009 -9.299,3.219 -12.434,7.518 -1.179,-4.326 1.673,-6.811 1.558,-13.172 2.652,4.947 0.468,6.158 0.917,8.496 2.133,-2.713 5.329,-3.111 7.558,-4.267 2.847,-1.489 4.59,-4.773 -1.298,-4.755 -11.507,0.023 -85.344,-0.013 -97.103,-0.013 -6.079,0 -4.299,3.262 -1.453,4.745 2.234,1.162 5.469,1.555 7.592,4.349 0.443,-2.341 -1.759,-3.54 0.897,-8.48 -0.115,6.361 2.715,8.735 1.593,13.097 -3.142,-4.299 -8.787,-5.509 -12.535,-7.518 -3.187,-1.694 -3.196,-2.825 -3.196,-8.281 0,-3.659 0.02,-8.276 -0.014,-11.366 -0.022,-2.173 2.508,-3.461 5.53,-3.377 h 100.075 c 3.012,-0.084 5.58,1.17 5.58,3.346 0.018,3.103 -0.034,7.77 0,11.429 0.045,5.609 -0.084,6.555 -3.267,8.249"
                        style="fill:#12375e;fill-opacity:1;fill-rule:nonzero;stroke:none"
                        id="path146" />
                <path
                        d="m 26.475,507.499 h 2.141 l 1.491,-4.145 c 0.031,-0.088 0.115,-0.42 0.239,-0.994 0.145,0.574 0.233,0.906 0.269,0.994 l 1.457,4.145 h 2.157 l -3.106,-7.416 h -1.536 l -3.112,7.416"
                        style="fill:#ffffff;fill-opacity:1;fill-rule:nonzero;stroke:none"
                        id="path148" />
                <path
                        d="m 36.418,500.085 v 7.416"
                        style="fill:none;stroke:#ffffff;stroke-width:2;stroke-linecap:butt;stroke-linejoin:miter;stroke-miterlimit:4;stroke-dasharray:none;stroke-opacity:1"
                        id="path150" />
                <path
                        d="m 43.551,502.843 -0.754,2.453 c -0.032,0.124 -0.12,0.447 -0.253,0.998 -0.136,-0.551 -0.229,-0.874 -0.255,-0.998 l -0.75,-2.453 z m -2.281,4.653 h 2.532 l 2.557,-7.411 h -2.012 l -0.371,1.332 h -2.867 l -0.388,-1.332 h -2.004 l 2.553,7.411"
                        style="fill:#ffffff;fill-opacity:1;fill-rule:nonzero;stroke:none"
                        id="path152" />
                <path
                        d="m 50.357,507.499 h 2.146 l 1.486,-4.145 c 0.032,-0.088 0.107,-0.42 0.244,-0.994 0.131,0.574 0.229,0.906 0.26,0.994 l 1.47,4.145 h 2.142 l -3.104,-7.416 h -1.536 l -3.108,7.416"
                        style="fill:#ffffff;fill-opacity:1;fill-rule:nonzero;stroke:none"
                        id="path154" />
                <path
                        d="m 59.228,507.499 h 4.538 v -1.629 h -2.573 v -1.29 h 2.423 v -1.583 h -2.423 v -1.254 h 2.573 v -1.66 h -4.538 z"
                        style="fill:#ffffff;fill-opacity:1;fill-rule:nonzero;stroke:none"
                        id="path156" />
                <path
                        d="m 67.89,503.993 c 0.843,0 1.25,0.269 1.25,0.926 0,0.768 -0.38,1.017 -1.223,1.017 h -0.406 v -1.943 z m -2.277,3.508 h 2.115 0.126 c 1.021,0 1.812,-0.016 2.451,-0.502 0.533,-0.416 0.82,-1.043 0.82,-1.823 0,-1.136 -0.574,-1.872 -1.649,-2.107 l 2.017,-2.984 h -2.279 l -1.703,2.905 v -2.905 h -1.898 v 7.416"
                        style="fill:#ffffff;fill-opacity:1;fill-rule:nonzero;stroke:none"
                        id="path158" />
                <path
                        d="m 74.351,500.085 v 7.416"
                        style="fill:none;stroke:#ffffff;stroke-width:2;stroke-linecap:butt;stroke-linejoin:miter;stroke-miterlimit:4;stroke-dasharray:none;stroke-opacity:1"
                        id="path160" />
                <path
                        d="m 78.082,505.743 h -1.646 v 1.753 h 5.324 v -1.753 h -1.656 v -5.658 h -2.022 z"
                        style="fill:#ffffff;fill-opacity:1;fill-rule:nonzero;stroke:none"
                        id="path162" />
                <path
                        d="m 87.228,502.843 -0.759,2.453 c -0.031,0.124 -0.111,0.447 -0.244,0.998 -0.131,-0.551 -0.232,-0.874 -0.264,-0.998 l -0.746,-2.453 z m -2.277,4.653 h 2.519 l 2.561,-7.411 h -2.003 l -0.38,1.332 h -2.862 l -0.384,-1.332 h -2.017 l 2.566,7.411"
                        style="fill:#ffffff;fill-opacity:1;fill-rule:nonzero;stroke:none"
                        id="path164" />
                <path
                        d="m 93.352,501.467 c 0.556,0 0.926,0.324 0.926,0.764 0,0.592 -0.409,0.768 -1.249,0.989 -1.328,0.343 -1.986,0.884 -1.986,2.04 0,1.38 1.003,2.408 2.564,2.408 0.827,0 1.55,-0.215 2.183,-0.657 l -0.629,-1.448 c -0.458,0.393 -0.957,0.587 -1.416,0.587 -0.495,0 -0.825,-0.269 -0.825,-0.621 0,-0.531 0.52,-0.649 1.186,-0.822 1.312,-0.348 2.044,-0.834 2.044,-2.207 0,-1.532 -1.099,-2.614 -2.838,-2.614 -1.046,0 -1.844,0.337 -2.635,1.092 l 0.918,1.503 c 0.591,-0.675 1.174,-1.014 1.757,-1.014"
                        style="fill:#ffffff;fill-opacity:1;fill-rule:nonzero;stroke:none"
                        id="path166" />
                <path
                        d="m 100.569,507.499 h 2.146 l 1.486,-4.145 c 0.027,-0.088 0.115,-0.42 0.239,-0.994 0.141,0.574 0.233,0.906 0.265,0.994 l 1.466,4.145 h 2.15 l -3.108,-7.416 h -1.532 l -3.112,7.416"
                        style="fill:#ffffff;fill-opacity:1;fill-rule:nonzero;stroke:none"
                        id="path168" />
                <path
                        d="m 110.51,500.085 v 7.416"
                        style="fill:none;stroke:#ffffff;stroke-width:2;stroke-linecap:butt;stroke-linejoin:miter;stroke-miterlimit:4;stroke-dasharray:none;stroke-opacity:1"
                        id="path170" />
                <path
                        d="m 114.743,505.743 h -1.642 v 1.753 h 5.319 v -1.753 h -1.66 v -5.658 h -2.017 z"
                        style="fill:#ffffff;fill-opacity:1;fill-rule:nonzero;stroke:none"
                        id="path172" />
                <path
                        d="m 123.889,502.843 -0.759,2.453 c -0.027,0.124 -0.106,0.447 -0.239,0.998 -0.145,-0.551 -0.233,-0.874 -0.26,-0.998 l -0.746,-2.453 z m -2.281,4.653 h 2.532 l 2.557,-7.411 h -2.013 l -0.37,1.332 h -2.867 l -0.388,-1.332 h -2.009 l 2.558,7.411"
                        style="fill:#ffffff;fill-opacity:1;fill-rule:nonzero;stroke:none"
                        id="path174" />
                <path
                        d="m 80.54,530.678 c 0.49,-0.582 0.824,-3.326 -1.555,-3.521 -4.099,-0.323 -6.064,0.088 -6.064,0.088 0,0 5.491,0.644 7.619,3.433"
                        style="fill:#e2a134;fill-opacity:1;fill-rule:nonzero;stroke:none"
                        id="path176" />
                <path
                        d="m 99.006,614.802 c 0.25,3.359 1.841,4.145 4.016,4.095 1.22,-0.029 3.072,-0.047 7.544,-0.011 -2.516,-0.226 -5.663,-1.549 -6.069,-4.829 -0.384,-3.038 -0.402,-13.592 -0.481,-18.087 -2.216,-0.083 -5.173,-0.004 -5.824,-0.172 0.324,4.667 0.57,15.645 0.814,19.004"
                        style="fill:#e2a134;fill-opacity:1;fill-rule:nonzero;stroke:none"
                        id="path178" />
                <path
                        d="m 76.562,627.838 h 1.096 v 4.202 h -1.096 z"
                        style="fill:#e2a134;fill-opacity:1;fill-rule:nonzero;stroke:none"
                        id="path180" />
                <path
                        d="m 77.655,632.904 -1.111,3.156 v -3.142 z"
                        style="fill:#e2a134;fill-opacity:1;fill-rule:nonzero;stroke:none"
                        id="path182" />
            </g>
        </g>
    </g>
</svg>
